<svg width="36" height="28" viewBox="0 0 36 28" fill="none" xmlns="http://www.w3.org/2000/svg">
<path d="M23.6875 12.9531L16.1875 7.95313C15.9977 7.83251 15.7798 7.76333 15.5551 7.75237C15.3305 7.74142 15.1069 7.78906 14.9062 7.89063C14.7064 7.99849 14.5397 8.15875 14.4241 8.35421C14.3085 8.54966 14.2483 8.77292 14.25 9V19C14.2483 19.2271 14.3085 19.4503 14.4241 19.6458C14.5397 19.8413 14.7064 20.0015 14.9062 20.1094C15.0906 20.2017 15.2939 20.2498 15.5 20.25C15.7436 20.2474 15.9816 20.1771 16.1875 20.0469L23.6875 15.0469C23.8616 14.9333 24.0046 14.7781 24.1036 14.5953C24.2026 14.4125 24.2545 14.2079 24.2545 14C24.2545 13.7921 24.2026 13.5875 24.1036 13.4047C24.0046 13.2219 23.8616 13.0667 23.6875 12.9531ZM16.75 16.6719V11.3281L20.75 14L16.75 16.6719ZM34.6094 4.90625C34.4658 4.3302 34.1846 3.79755 33.79 3.35398C33.3954 2.9104 32.8992 2.56912 32.3438 2.35938C27 0.296878 18.4688 0.312503 18 0.312503C17.5312 0.312503 9 0.296878 3.65625 2.35938C3.10084 2.56912 2.60458 2.9104 2.20998 3.35398C1.81539 3.79755 1.53424 4.3302 1.39063 4.90625C0.984375 6.45313 0.5 9.29688 0.5 14C0.5 18.7031 0.984375 21.5469 1.39063 23.0938C1.53424 23.6698 1.81539 24.2025 2.20998 24.646C2.60458 25.0896 3.10084 25.4309 3.65625 25.6406C8.78125 27.625 16.8125 27.6875 17.8906 27.6875H18.1094C19.1875 27.6875 27.2188 27.625 32.3438 25.6406C32.8992 25.4309 33.3954 25.0896 33.79 24.646C34.1846 24.2025 34.4658 23.6698 34.6094 23.0938C35.0156 21.5469 35.5 18.7031 35.5 14C35.5 9.29688 35.0156 6.45313 34.6094 4.90625ZM32.1875 22.4688C32.1413 22.6578 32.0506 22.8331 31.9228 22.9799C31.7951 23.1266 31.634 23.2407 31.4531 23.3125C26.5 25.2188 18.0938 25.1875 18 25.1875H17.9844C17.9062 25.1875 9.5 25.2188 4.54688 23.3125C4.36599 23.2407 4.20494 23.1266 4.07717 22.9799C3.94941 22.8331 3.85865 22.6578 3.8125 22.4688C3.4375 21.0469 3 18.4375 3 14C3 9.5625 3.4375 6.95313 3.8125 5.53125C3.85865 5.3422 3.94941 5.16694 4.07717 5.02015C4.20494 4.87336 4.36599 4.7593 4.54688 4.6875C9.3125 2.85938 17.3125 2.8125 17.9688 2.8125H18C18.0938 2.8125 26.5 2.78125 31.4531 4.6875C31.634 4.7593 31.7951 4.87336 31.9228 5.02015C32.0506 5.16694 32.1413 5.3422 32.1875 5.53125C32.5625 6.95313 33 9.5625 33 14C33 18.4375 32.5625 21.0469 32.1875 22.4688Z" fill="white"/>
</svg>
